<?xml version="1.0" standalone="no"?>
<!DOCTYPE svg PUBLIC "-//W3C//DTD SVG 20010904//EN"
 "http://www.w3.org/TR/2001/REC-SVG-20010904/DTD/svg10.dtd">
<svg version="1.0" xmlns="http://www.w3.org/2000/svg"
 width="354.000000pt" height="354.000000pt" viewBox="0 0 354.000000 354.000000"
 preserveAspectRatio="xMidYMid meet">
<g transform="translate(0.000000,354.000000) scale(0.100000,-0.100000)"
fill="#ffffff" stroke="none">
<path d="M750 2410 c0 -756 2 -860 15 -860 13 0 15 99 17 809 l3 809 280 -639
c154 -352 280 -643 280 -648 0 -5 -33 -35 -73 -66 -141 -110 -246 -275 -293
-460 -30 -117 -33 -324 -5 -425 42 -155 146 -323 271 -438 155 -141 337 -211
551 -212 252 0 473 88 627 248 l57 61 0 255 0 256 -470 0 -470 0 0 -100 0
-100 48 35 c68 49 167 93 248 111 40 9 149 17 262 21 l192 6 0 -296 0 -296
-37 -31 c-21 -17 -74 -49 -118 -70 -258 -126 -483 -83 -701 135 -201 200 -292
448 -281 765 6 167 21 239 77 355 40 82 125 199 138 191 5 -3 34 -66 67 -140
51 -119 61 -136 82 -136 l23 0 0 194 0 194 33 11 c17 7 78 17 135 23 119 14
198 4 277 -33 l50 -24 3 -183 2 -182 95 0 94 0 3 101 3 101 50 -68 50 -68 5
-106 5 -105 40 0 40 0 5 165 5 165 88 170 c67 130 98 178 129 205 77 65 138
130 138 146 0 13 -3 14 -15 4 -8 -7 -44 -15 -80 -17 -54 -5 -66 -3 -71 11 -4
11 2 26 15 40 26 28 27 61 1 117 -11 24 -20 60 -20 79 l-1 35 -25 -30 c-52
-64 -65 -179 -23 -209 20 -14 17 -41 -5 -49 -7 -3 -42 -2 -77 3 -35 4 -66 6
-68 4 -2 -2 5 -18 16 -36 12 -21 42 -46 83 -68 46 -25 65 -41 65 -55 0 -11
-38 -91 -84 -178 -73 -139 -85 -156 -95 -140 -7 10 -49 79 -94 154 l-82 137 0
606 0 606 -27 0 c-55 -1 -164 -30 -216 -57 -71 -38 -175 -144 -226 -231 -50
-83 -119 -251 -156 -378 -33 -114 -72 -339 -81 -474 -4 -58 -10 -114 -14 -125
-9 -25 26 -104 -289 645 l-259 615 -106 3 -106 3 0 -861z m1290 189 l0 -600
-57 8 c-122 17 -324 -3 -424 -42 -18 -7 -18 -4 2 215 36 393 168 761 330 918
43 41 127 102 142 102 4 0 7 -270 7 -601z"/>
</g>
</svg>
